<?xml version="1.0" encoding="UTF-8"?>
<!DOCTYPE svg PUBLIC "-//W3C//DTD SVG 1.1//EN" "http://www.w3.org/Graphics/SVG/1.1/DTD/svg11.dtd">
<svg xmlns="http://www.w3.org/2000/svg" version="1.1" width="100px" height="100px" style="shape-rendering:geometricPrecision; text-rendering:geometricPrecision; image-rendering:optimizeQuality; fill-rule:evenodd; clip-rule:evenodd" xmlns:xlink="http://www.w3.org/1999/xlink">
<g><path style="opacity:0.998" fill="#4b1862" d="M 3.5,-0.5 C 34.1667,-0.5 64.8333,-0.5 95.5,-0.5C 97.1667,0.5 98.5,1.83333 99.5,3.5C 99.5,34.1667 99.5,64.8333 99.5,95.5C 98.5,97.1667 97.1667,98.5 95.5,99.5C 64.8333,99.5 34.1667,99.5 3.5,99.5C 1.83333,98.5 0.5,97.1667 -0.5,95.5C -0.5,64.8333 -0.5,34.1667 -0.5,3.5C 0.5,1.83333 1.83333,0.5 3.5,-0.5 Z"/></g>
<g><path style="opacity:1" fill="#fcfbfc" d="M 68.5,61.5 C 70.3342,65.5135 71.0008,69.8468 70.5,74.5C 70.0057,81.3304 66.6724,86.1638 60.5,89C 47.4234,92.7158 38.9234,88.2158 35,75.5C 34.5,54.1693 34.3334,32.8359 34.5,11.5C 38.8595,12.0067 43.1928,12.6734 47.5,13.5C 47.5,19.5 47.5,25.5 47.5,31.5C 53.1667,31.5 58.8333,31.5 64.5,31.5C 63.7404,36.1502 63.0738,40.8169 62.5,45.5C 57.5,45.5 52.5,45.5 47.5,45.5C 47.0796,55.2471 47.5796,64.9138 49,74.5C 52.805,77.5388 55.805,76.8721 58,72.5C 58.499,68.1794 58.6657,63.8461 58.5,59.5C 61.7893,60.3739 65.1226,61.0405 68.5,61.5 Z"/></g>
<g><path style="opacity:1" fill="#866396" d="M 68.5,61.5 C 69.5,61.5 70.5,61.5 71.5,61.5C 71.8182,66.0323 71.4849,70.3656 70.5,74.5C 71.0008,69.8468 70.3342,65.5135 68.5,61.5 Z"/></g>
</svg>
